<?xml version="1.0" standalone="no"?>
<!DOCTYPE svg PUBLIC "-//W3C//DTD SVG 20010904//EN"
 "http://www.w3.org/TR/2001/REC-SVG-20010904/DTD/svg10.dtd">
<svg version="1.0" xmlns="http://www.w3.org/2000/svg"
 width="512.000000pt" height="512.000000pt" viewBox="0 0 512.000000 512.000000"
 preserveAspectRatio="xMidYMid meet">

<g transform="translate(0.000000,512.000000) scale(0.100000,-0.100000)"
fill="#000000" stroke="none">
<path d="M592 4629 c-105 -18 -193 -86 -241 -188 l-26 -56 -3 -1855 c-1 -1126
1 -1881 7 -1923 21 -148 115 -250 256 -276 84 -16 2443 -15 2517 0 71 15 104
33 156 83 84 80 102 148 102 388 l0 158 -862 2 -863 3 -69 32 c-131 63 -226
169 -266 300 -19 62 -20 92 -20 697 0 693 0 697 60 801 38 66 119 147 184 184
108 62 92 61 1005 61 l831 0 0 160 0 160 -437 0 -438 0 -55 26 c-68 31 -123
83 -158 149 l-27 50 -3 528 -3 527 -797 -1 c-438 -1 -821 -5 -850 -10z"/>
<path d="M2402 4135 l3 -500 23 -37 c13 -21 40 -45 66 -57 41 -21 55 -21 449
-19 l407 3 -438 510 c-240 281 -454 531 -475 555 l-38 45 3 -500z"/>
<path d="M1714 2870 c-64 -9 -146 -53 -186 -99 -17 -19 -43 -60 -57 -91 l-26
-55 -3 -579 c-2 -355 1 -603 7 -643 23 -149 118 -249 261 -273 46 -8 475 -10
1455 -8 l1390 3 50 23 c58 27 129 92 155 142 10 20 23 62 29 95 14 76 15 1151
1 1224 -21 109 -77 184 -178 233 l-67 33 -1390 1 c-764 1 -1413 -2 -1441 -6z
m640 -330 c106 -40 190 -144 203 -251 l6 -49 -81 0 -81 0 -10 38 c-15 56 -65
99 -131 113 -67 14 -206 7 -246 -14 -110 -57 -118 -206 -14 -270 30 -19 55
-22 180 -27 164 -6 206 -19 280 -86 63 -57 93 -123 98 -220 4 -73 1 -88 -22
-140 -35 -77 -87 -129 -161 -165 -58 -28 -65 -29 -215 -29 -150 0 -157 1 -215
29 -34 16 -78 47 -101 73 -44 47 -84 138 -84 189 l0 30 82 -3 82 -3 6 -30 c9
-44 30 -73 70 -98 49 -30 229 -38 295 -12 145 55 128 259 -25 294 -25 6 -94
11 -155 11 -100 0 -115 3 -170 29 -203 96 -249 361 -89 518 80 77 127 92 301
92 119 1 151 -2 197 -19z m960 0 c69 -26 134 -83 171 -151 l30 -54 3 -325 3
-326 -35 -69 -35 -70 59 -60 60 -60 -57 -58 -58 -57 -67 67 -68 67 -177 -2
-178 -3 -60 29 c-75 36 -136 102 -164 176 -20 53 -21 75 -21 356 0 282 1 303
22 357 27 74 106 153 180 182 78 29 313 30 392 1z m526 -460 l0 -480 320 0
320 0 0 -80 0 -80 -400 0 -400 0 0 560 0 560 80 0 80 0 0 -480z"/>
<path d="M3035 2396 c-5 -2 -22 -7 -37 -10 -15 -4 -43 -20 -62 -37 -51 -44
-58 -94 -54 -387 3 -226 5 -250 23 -280 33 -55 77 -75 174 -80 l86 -4 -85 86
-85 86 58 57 57 58 109 -109 c108 -108 109 -108 122 -85 11 19 14 88 14 309 0
318 -1 321 -71 369 -28 20 -49 24 -136 27 -57 2 -107 2 -113 0z"/>
</g>
</svg>
